/* XPM */
static char *_f0f834e00bb42e9e0bccb232f7cec74Ry4BC0mLAvWIEppE[] = {
/* columns rows colors chars-per-pixel */
"64 64 196 2 ",
"   c #070102",
".  c #090305",
"X  c #0B060A",
"o  c #0D090D",
"O  c #140707",
"+  c #140709",
"@  c #130A0D",
"#  c #190C0F",
"$  c #0E0D12",
"%  c #120E13",
"&  c #190E12",
"*  c #0F1016",
"=  c #0F1319",
"-  c #121116",
";  c #1C1215",
":  c #12151B",
">  c #1A151A",
",  c #131A1E",
"<  c #1B1A1D",
"1  c #240C0C",
"2  c #220F13",
"3  c #2C0F11",
"4  c #221214",
"5  c #281011",
"6  c #231619",
"7  c #221A1D",
"8  c #2B1B1C",
"9  c #311618",
"0  c #311B1B",
"q  c #3C1D1B",
"w  c #25201F",
"e  c #3B211F",
"r  c #131621",
"t  c #171B24",
"y  c #141D25",
"u  c #171D24",
"i  c #171F24",
"p  c #131B21",
"a  c #1A1E22",
"s  c #191D22",
"d  c #1C1E23",
"f  c #191E25",
"g  c #1B1D23",
"h  c #161E28",
"j  c #1C1F28",
"k  c #221E22",
"l  c #2B1F20",
"z  c #211F28",
"x  c #172025",
"c  c #172026",
"v  c #192027",
"b  c #182126",
"n  c #192126",
"m  c #1D2325",
"M  c #1C2126",
"N  c #172129",
"B  c #16222A",
"V  c #1A2228",
"C  c #1B2229",
"Z  c #1C2328",
"A  c #19242B",
"S  c #1E262B",
"D  c #18232C",
"F  c #1B262D",
"G  c #1B272E",
"H  c #19262E",
"J  c #1C262C",
"K  c #1D262D",
"L  c #1C242B",
"P  c #1C282E",
"I  c #1D292E",
"U  c #1B2A31",
"Y  c #1E2B31",
"T  c #1C2B32",
"R  c #1F2E35",
"E  c #1E2F36",
"W  c #1D2B32",
"Q  c #1F3036",
"!  c #1F3036",
"~  c #1F3139",
"^  c #1F3238",
"/  c #202226",
"(  c #232225",
")  c #2A2425",
"_  c #202429",
"`  c #23262A",
"'  c #2B2629",
"]  c #23292E",
"[  c #242A2D",
"{  c #2B2A2C",
"}  c #322324",
"|  c #3D2323",
" . c #372827",
".. c #31272B",
"X. c #322B2D",
"o. c #3C2E2D",
"O. c #34322D",
"+. c #38312F",
"@. c #202630",
"#. c #202A31",
"$. c #232E33",
"%. c #212D32",
"&. c #202F35",
"*. c #222F35",
"=. c #232C32",
"-. c #2A2E32",
";. c #232F39",
":. c #312E32",
">. c #3C2E30",
",. c #203037",
"<. c #253037",
"1. c #243136",
"2. c #2B3235",
"3. c #23333B",
"4. c #243239",
"5. c #22343A",
"6. c #25343A",
"7. c #263539",
"8. c #26373C",
"9. c #25353D",
"0. c #25343A",
"q. c #2A353A",
"w. c #26393E",
"e. c #26383E",
"r. c #283A3F",
"t. c #2B3A3E",
"y. c #323335",
"u. c #3A3334",
"i. c #3C3836",
"p. c #323639",
"a. c #393638",
"s. c #333A3C",
"d. c #3B3C3B",
"f. c #422A29",
"g. c #433434",
"h. c #413E3B",
"j. c #4A3F3A",
"k. c #34413E",
"l. c #54413B",
"z. c #62433A",
"x. c #263A41",
"c. c #283D42",
"v. c #2B3D42",
"b. c #323E42",
"n. c #3C3F40",
"m. c #2D4145",
"M. c #2D444A",
"N. c #334245",
"B. c #3B4344",
"V. c #3D4A46",
"C. c #334649",
"Z. c #3C4649",
"A. c #354A4C",
"S. c #3B4B4C",
"D. c #354D52",
"F. c #3A4F51",
"G. c #365053",
"H. c #3C5253",
"J. c #3C5659",
"K. c #3D5A59",
"L. c #464543",
"P. c #4D4643",
"I. c #4A4943",
"U. c #444C4C",
"Y. c #494E4C",
"T. c #584743",
"R. c #534946",
"E. c #5E4D46",
"W. c #5D4E49",
"Q. c #45514F",
"!. c #425454",
"~. c #4B5554",
"^. c #455856",
"/. c #4A5955",
"(. c #415758",
"). c #445C5B",
"_. c #4B5C5B",
"`. c #515652",
"'. c #644A43",
"]. c #46625E",
"[. c #4C605E",
"{. c #59625D",
"}. c #425E60",
"|. c #466262",
" X c #4A6562",
".X c #4D6A66",
"XX c #4D6D6A",
"oX c #546462",
"OX c #516A65",
"+X c #506C68",
"@X c #5A6C68",
"#X c #4B7068",
"$X c #53726A",
"%X c #5B7B74",
"&X c #617371",
"*X c #627C73",
/* pixels */
"p , , , , , , , , , , , , , , , , p p p , , , , , p , , , , , , , , , , , , , , , , , , , , , , , , , , , p , , , , , , , , , , ",
"p p p p , p p p p p p p p p p p p p p p p p p p p p p p p p p p p p p p p p p p p p p p p p p p , p p p p p p p p p p p p p , , ",
"p p p p p , = : : : : - = - - - - - - - - : - - : : : - - - - - - - : - : : : : : = - - - - - - - - : : : : : : : : : - - : , , ",
"p p p , p = .     .     . .         . o .   . .       . X .             . . .   X . . . .     .             . . . . . .   X : , ",
"p , , , p *         . . X X     .   - : $ - $ o . . X . o     .     . . X o $ $ $ : : - $ . . o         . o . .           . : , ",
"p p p , p *   . o X p p - - o o i @ : F F F : $ p - $ % . $ , X o $ $ * $ : D F o $ v : s : : : o     o s $ . * X X X X X . : , ",
"p p p , p *     . o : - - : $ , B * p Y K v - : % o X X . p : $ t v i s , : v f - o o f K s - : @   , F s - $ - $ - $ o X X = , ",
"p p p p p * X - o * s : i v v &.! ! %.s , V d s : @ : i : + X I e.,.&.&.v o - : m K Y 6.4.K - s > ] #.U v K i , p - - : % X = , ",
"p p p p p * X : , x F Z U R &.r.x.4.%.&.8.8.%.%./ s B V 7 S F R R 6.5.Y : : ^ S S 8.c.e.8.,.- V #.1.` s 6.,.: s i : - f $ . : , ",
"p p p p p * . - , s Z < s V - I 6.1.=.r.c.6.%.x.1.S Y k / U ; / =.t.v.] < - %.d S c.6.q.6.=.s #.: Z k ` %.] < m / < % % X X = , ",
"p p p p p * . % - p x A v K K I 6.q.2.r.v.c.1.x.%.4.I V F i : b.G.A.C.M.,.A ^ 4.] r.v.c.4.p - S s 4.r.x.W D v -.v f p - o X : , ",
"p p p p p * X . o p Y / s 4.S : Z -.S 6.e.Y s 4.m i F ,.i &.%.%.q.N.e.e.s ` c.e.%.8.e.&.s < %.s d I -.b.9.U ( ` B i - : o X : , ",
"p p p p p * o . o - - + : Z ; X X o o i 1.s ( % : S %.%.b.F., : ( : %.< % : q.p.7 > , % , s , - % ; # ; q.V - % : : - o X o = , ",
"p p p p p -   X , : p v 4.6.` m ,.[ 7.e.v.c.{ d U I 8.Y !.t.- 6.=.] N.v.I s 4.] { < 7 =.q.v.c.8.K t.4.S : - s -.Y A , : X . = , ",
"p p p p p * X o X $ f v W 6.-.c.A.A.[ t.C.c.` F Y W 1.S t.H.q.: H.H.s.J.6.=.M.m.' > 4.A.J.A.A.M.-.B.x.N.I - < t.R P F s $ X : , ",
"p p p p p * . $ - s % X : : - 8.A.C.N.B.A.).r.F c.C.r.` Z.G.S.C.A.C.K.m.- / N.N.M A.]..X XK.H.m.< s.c.6.c.c.t.q.8.R F K : . : , ",
"p p p p p *   . $ , , , @ -.' $ %.,.v.C.s.! s S N.v.q.6.2.t.2.^.^.C.#.> v ` 4.d [ ).]..X X).6.K > p.t.-.c.W m { 9.F - s $ . : , ",
"p p p p p * o % $ , : - S e.k > -.S.A.!.B.7 7 B.b.2.Q.s./ Z.< f D.K ; t.q.` H.H.C.|. X.XXXD.> @ ; { U.B.[ ` < < 4.p + o   . : , ",
"p p p , p * X s V W W K %.q.( i v.(._.OX).S.s C.S.m.[.[.(.A...@ ; 9 q.M.s d ).A.m _.!.S.N.< 8 { v.H.).H.N.2.k q.4.K % s : X : , ",
"p , , , p - X p - , Y 6.c.c.` Y ,.6.S.(.S.S.p.c.S.U. X).S.A.p.2  .!.A.6 4 m C.1.=.(._.N.@ ' 1.M.K.H.A.N.m.6./ 1.4.F * * = X : , ",
"p p , , p * X $ $ i Y q.c.q.- K r.A.A.C.r.K s 4.n.H.G.r.q.r.= ' !._.W.z.u., 4.c.6.C.c.=.-.q.v.H.XX).H.t.4.5.m 2.Y i : : $ . : , ",
"p p , , p * . . , Y v K %.p . $ %.4.6.Y r & 8 -.p.v.8.` ' t 4 S s.T.'.U.&.o f f % 4.` N.F.C.] s H.(.v.t.4.Y > ( B V - p o . : , ",
"p s p p p * o o . : S < < ' w o ' ' / g - ' j.X.} / ` d < k < Z.d.d.L.B.s.i.h.L.; ' { k.S.^.p.X.< L.B.B.[ / < d [ ` p % X . : , ",
"p p , , p * o , : v %.{ 8.8./ K 1.` 1.t.[ H.(.B.' U F K &.4.q.B.H.XX).H.!.B.C.S.L.B.).$X$X#XH.A.-.U.G.M.#.1.{ { &.Y F F $ . : , ",
"p , , , p * o i V U 2.k i g < r.v.v.c.N.d.S.C.J.P.( 2.Z.t.s.' t. XJ.J.J.6.% ` ' ' p./.[._.!.-.[ / ( -.V d 7 k 1.E s x p $ X : , ",
"p , , , p * X : A Y 5./ , N.[ : A.H.S.s.{ r.H.).s.[ _.oXd.Q./.-.|.A.N.4.p 6 ) 2.X.!.[.[.S.S.N.2.o ` Z.[ -.s.< S Z S K f * X = , ",
", , , , p * X : A &.f m 6.r.=.V 1.C.D.` @ =.r.C.p.v.A.H.A.|.).7 r #.p : ; 7 C.S.I..XXX).H.A.v.r.d b.m.F p.c.Z q.s Z Y B $ . : , ",
", , , , p $ X p V v % ; 5.1.2.8.S.p.s > :.B.s.% % A.|.|.d.S.)._.p.X 8 7 ` ] t.b.` H.+XH.m.C.s.s.` X.s.2.2.x.v k : < , $ X . : , ",
"p , , , , * X $ : % 4 ; V ` > q.N.) 1 p.K.J.@XI.6 Z A.S.p.N.H.F.b.} o.a.` - / -.# X q.Z.B.N.1.p.{ Z.J.N.6.9.Z 2.Y I : Z $ . : , ",
", , , p p * . = i K 2.[ 6.v.7 @ & 3 k F.N.C..X%X{.' d =.=.r.8.` ' H.J.!.=.> q.C.[ O.y.' q.8.S ' < N.m.8.4.R v =.,.B - f $ . : , ",
", , , p p - . o p W 4.I F 8.) 6 ' ' < c.S.J.H. X*X`.8 & s : ; - S.)..XC.) ; 6.q.d.|.).2.% h ; X ; t.x.9.W f f %.A K , $   . : , ",
"p p , , p - . $ $ i 6.] i ] ( v ,.q./ Y v.m.C.].).~.( ; 4 q 4 r.^.^.Z.d.s.4 d 1.s.A.C.-.5 @ 7 ) } &.9.Y S Y f s K F , $ o X = , ",
"p , , p p * X @ $ : s ; = K ) I q.v.` r &.6.N.C.b.: 1 | >.g.-.=.Z.B.X.S.-.k { ( m r.c.S 4 X.Z.q.> -.P , U B : , i , $ o $ o = , ",
"p , , , p * o - : $ % - : -.> : / > + o o - S d @ > ) 7 -.n.< > ' 6 a.' 4 ; :.( d &.Z > } d.B.q.) ' k ) =.` ( d p < - : $ o = , ",
"p p , p p * X o o * $ s B f 7 : ; 3 > p , s ,.R , -.C.s.!.(.< t.2.[ S.s.] < 2.2.; # 2 q ' ).).S.] / / { { W m s f f i $ X o : , ",
"p , p p , *   X . $ % X : : # + ) B.S.S.A.` ; 4 7 { v.S.V.m.-.M t.N.( v.q.> s.s.y.' y.P.' b.A.c.s & 2.S : ; + > ( < %   . . : , ",
"p , p p p * . * : @ % s ` r./ , 4.A.H.|.H.N.6 ' N.N.B.|.A.C.s.S ` 2.s.` ; m m.C.1.t.S.A.S.( k d O 2.M.6.c.-.6 [ #.F - o . . : , ",
"p , p p p *   . - % s V K =.s P ,.r.C.C.C.v.` r.Z.d.^.C.s.N.d & ' H.Y.| } S c.6.1.H.(.S.M.b.7 % 7 ` &.r.5.5./ -.F p o X o . : , ",
"p , p p p * X : @ : V V Y K o , 4.m.m.r.Y , > #.y.B.C.-.' K & { S.`.E.R.p.- R I s C.F.C.c.-.; q.[ d.6.e.4.W i Z h = o o   . : , ",
"p , p p p *   . $ f < : , : O X d / ` s $ 4 e X.X.` S 7 6 ; 4 M u.g.l.h.' ; k ( ; / v.-.' 8 8 2.d ..-.S v , : < s : - $   . : , ",
"p , p p p *   . $ p Z / Z %.s * ` ` ` S : s.R.a.l K #.Z v ` ` ~.B.s.N.s.S.I.y.+.y.n.s.i.Y._.S.2.< B.!.N.=.M > { 2.[ : : o . : p ",
"p p p p p * X @ - i V / K W [ I 6.5.e.s.p.U.S.M.s.` B K 4.r.S [ G.(.H.J.N.-.P #.{ 8.c.s.C.m.C.m.` s.C.r.4.[ / [ K : - d $ . : p ",
"p p p p p *   X o f , > i K [ 4.v.N.N.N...v.m.F.u.k B.~.s.d.O.t.}.A.C.m.F = 4.c.7 % z % 4.c.c.8.` ../ ` =.d < -.V p p s $ . : p ",
"p , p , , * . o o X % g : > < K -.b.{ { 7 d -.-.< ;.S.!.s.^.OXs.-.v.Y B - X : S < ( ; & k t.=.f : y.r.C.C.,., K K Z : @ . . : p ",
"p p p p p * o o - f [ > d =.d ; p.b.s.s.B.B.Y.; ; M.A.H.B.(.S.S.{ % % & > ; ` 2./ p.N.S./.Z.U.y.. s A.A.m.4.: ` d > % : $ X : p ",
"p p , p p * o , s V I m , -./ , =.8.c.[ b.b.oXoXX.#.F.F.y.b.H.H.N.k 0 ( ` > =.p.2.m.H.A.b.A.A.S.s.< =.v.r.Y ; ; @ @ d : X . : p ",
"p p , p p * . o o i i - , =.[ #.t.{ > 2.N.A.).+X&X{ k -.2.r.v.4.d > ` p.m o m -.-.F.F.S.q.C.m.6.2.=.7 ` @.; 5 k k ` S , X . : , ",
"p p , , p * . o X % - > V V ` #.r./ % Y c.C.m.^. X/.6 @ s - - ; 5 ; v.C.I - -.7 > C.A.C.m.6.,.%.r.9.1.6 @ 5 8 -.S V p -   . : , ",
"p , , , p * . = $ : [ { i K d : f ] k p &.4.m.H.F.t.; ; 4 0 6 @ 7 -.D.c.Y $ ` :.@ % &.r.e.I ] r.8.4.L ; 0 } k g v f - X . . = , ",
", , , , p - $ o $ s p d F Y > + ( -.> $ : v I K k o 4 7 X.' ; < ` 1.=.A : % ; g 7   - f =.-.m ` ` g ; 8 f.' - 2 : ; # % X . = , ",
", , , , p $ * % - i s d i Y f f =.q.' $ : p V K - Z K ,.K : - 2.A.N.t.s / k ] : > M < < =.2.[ d ; < a.-.` S s ( d d v : o . = p ",
", , , , p * . $ o : K m p F m f K =./ q.V p B B Z f h , A R A 6.c.c.5.6.v v Y I 2.m Z 1.,.I Y Y < ] %.c.R D d m p p : p $ . = , ",
", , , , p * $ * @ > : > : - - X % < : 1.1.< s > 7 p 7 ( m.c./ - Z =.#.] : % , d > k [ ` f m m A < : > ` W V > : s : o % X X = , ",
", , , , p * X : p , , < v Z 7 + > ` > , q.t.{ : F ] S I #.V ; : r.b.v.t.K @ % s , ,.t.1.%.] : , < -.m f d d > < s s , : % X : , ",
"p , , , p * . - @ % p : p s + , K - < 1.,.V @ : B B i p p p o Y x.8.4.&.x ; < m : I Y 4.,.%.v : - #.Z : : $ - f p p - : o . : , ",
"p , , , p $ . % @ - p p : @ @ p p S K #., < @ : v : p f - X @ , p F F i $ % / s - &.#.p V V : d < f , < - o , s p - o . . . = , ",
"p p , , p * . . * : $ o X - - $ $ : , : % m , : - : - - ; : % . o : : $ - - i : , U R : X @ + : - @ ; ; . , o X $ . o . . . : , ",
"p p , , p *     . .     $ $ X $ - o X t s * : - $ $ - : - - : o $ o , h : X - - - V i - + O > % X @     . .   o - X X .   . : , ",
"p p p p p -             X   X . o % X $ $ * X o X X X o . - o o p X % o % X o $ . $ $     . : X X           . o o   .     . : , ",
"p p p , p = .   .         .   .         . .             . .   X $ . X   . .   .           .         .       .             X : , ",
"p p p , p : = = = = = = * * * = = = = = = = = = = = = = = = = = * - * - = = = = = = = = = = = = = = = = = = = = = = = = = = p p ",
"p p p , p p p p p p p p p p p p p p p p p p p p p p p p p p p p p p p p p p p p p p p p p p p p p p p p p p p p p p y p p p p , ",
"p p p p p p p p p p p p p p p p p p p p p p p p p p p p p p p p p p p p p p p p p p p p p p p p p p p p p p p p p p p p p p p , ",
"p p p , p p p , , p p p p p , , p p , p p p p p p p p p , , p p p p p p p p p p p p , , , p p p p p p p p p p p p p p p p p , , "
};
