/* XPM */
static char *fc925ded8ce34837ea71976e266f4a9bmFVubq8efgxuDiRP[] = {
/* columns rows colors chars-per-pixel */
"64 64 3 1 ",
"  c None",
". c #BAE048",
"X c #CCF355",
/* pixels */
"                                                                ",
"                                                                ",
"                                                                ",
"                                                                ",
"                                                                ",
"                                                                ",
"                                                                ",
"                                                                ",
"                                                                ",
"                                                                ",
"                                                                ",
"                                                                ",
"                                                                ",
"                  XXXXXXXXXXXXXXXXXX                            ",
"                  XXXXXXXXXXXXXXXXXXXXXXXXXXXXXXX               ",
"                  XXXXXXXXXXXXXXXXXXXXXXXXXXXXXXX               ",
"                  XXXXXXXXXXXXXXXXXXXXXXXXXXXXXXX               ",
"            XXXXXXXXXXXXXXXXXXXXXXXXXXXXXXXXXXXXX               ",
"            XXXXXXXXXXXXXXXXXXXXXXXXXXXXXXXXXXXXX               ",
"            XXXX...........................XXXXXX               ",
"            XXXX...........................XXXXXXXXXXXXXXXX     ",
"            XXXX...........................XXXXXXXXXXXXXXXX     ",
"            XXXX....................................XXXXXXX     ",
"            XXXX....................................XXXXXXX     ",
"            XXXX....................................XXXXXXX     ",
"            XXXX....................................XXXXXXX     ",
"            XXXX....................................XXXXXXX     ",
"            XXXX....................................XXXXXXX     ",
"            XXXX....................................XXXXXXX     ",
"            XXXX....................................XXXXXXX     ",
"            XXXX....................................XXXXXXX     ",
"        XXXXXXXX....................................XXXXXXX     ",
"        XXXXXXXX....................................XXXXXXX     ",
"        XXXXXXXX....................................XXXXXXX     ",
"        XXXXXXXX....................................XXXXXXX     ",
"        XXXXXXXX....................................XXXXXXX     ",
"        XXXXXXXX....................................XXXXXXX     ",
"        XXXXXXXX....................................XXXXXXX     ",
"        XXXXXXXX....................................XXXXXXX     ",
"        XXXXXXXX....................................XXXXXXX     ",
"        XXXXXXXXX...................................XXXXXXX     ",
"        XXXXXXXXX...................................XXXXXXX     ",
"        XXXXXXXXX..................................XXXXXX       ",
"        XXXXXXXXXXXXXX.........................XXXXXXXXX        ",
"        XXXXXXXXXXXXXX.........................XXXXXXXXX        ",
"        XXXXXXXXXXXXXX.........................XXXXXXXXX        ",
"        XXXXXXXXXXXXXX.........................XXXXXXXXX        ",
"        XXXXXXXXXXXXXX.........................XXXXXXXXX        ",
"        XXXXXXXXXXXXXXXXXXXXXXXXXXXXXXXXXXXXXXXXXXXXXXX         ",
"        XXXXXXXXXXXXXXXXXXXXXXXXXXXXXXXXXXXXXXXXX               ",
"        XXXXXXXXXXXXXXXXXXXXXXXXXXXXXXXXXXXXXXXXX               ",
"                XXXXXXXXXXXXXXXXXXXXXXXXXXXXXX                  ",
"                XXXXXXXXXXXXXXXXXXXXXXXXXXXXXX                  ",
"                XXXXXXXXXXXXXXXXXXXXXXXXXXXXXX                  ",
"                XXXXXXXXXXXXXXXXXXXXXXXXXXXXXX                  ",
"                                                                ",
"                                                                ",
"                                                                ",
"                                                                ",
"                                                                ",
"                                                                ",
"                                                                ",
"                                                                ",
"                                                                "
};
