/* XPM */
static char *db3070a7fb374b7c8837494ca35e27aam6u931JkZYCs9jUL[] = {
/* columns rows colors chars-per-pixel */
"64 64 9 1 ",
"  c None",
". c #706B6B",
"X c #FEFEFE",
"o c #FFFEFE",
"O c #FEFFFE",
"+ c #FFFFFE",
"@ c #FFFEFF",
"# c #FEFFFF",
"$ c white",
/* pixels */
"                                                                ",
"                                                                ",
"                          $$$$$$                                ",
"                     $$$$$$$$$$$$$                              ",
"                    $$$$$$$$$$$$$$$$$                           ",
"                   $$$$$$$$$$$$$$$$$$$$                         ",
"                   $$$$$$$$$$$$$$$$$$$$$                        ",
"                   $$$$$$$$$$$$$$$$$$$$$                        ",
"                $$$$$$$$$$$$$$$$$$$$$$$$                        ",
"                $$$$$$$$$$$$$$$$$$$$$$$$                        ",
"               $$$$$$$$$$$$$$$$$$$$$$$$$$$                      ",
"              $$$$$$$$$$$$$$$$$$$$$$$$$$$$$                     ",
"             $$$$$$$$$$$$$$$$$$$$$$$$$$$$$$                     ",
"            $$$$$$$$$$$$$$$$$$$$$$$$$$$$$$$$                    ",
"           $$$$$$$$$$$$$$$$$$$$$$$$$$$$$$$$$$                   ",
"           $$$$$$$$$$$$$$$$$$$$$...$$$$$$$$$$$                  ",
"         $$$$$$$$$$$$$$$$$$$$$$$...$$$$$$$$$$$$                 ",
"        $$$$$$$$$$$$$...$$$$$$$$...$$$$$$$$$$$$$                ",
"     $$$$$$$$$$$$$$$$...$$$$$$$$..$$$$$$$$$$$$$$$               ",
"    $$$$$$$$$$$$$$$$$...$$$$$$$$$$$$$$$$$$$$$$$$$               ",
"  $$$$$$$$$$$$$$$$$$$.$$$$$$$$$$$$$$$$$$$$$$$$$$$$$$$$          ",
" $$$$$$$$$$$$$$$$$$$$$$$$$$$$$$$$$$$$$$$$$$$$$$$$$$$$$$$$$      ",
"$$$$$$$$$$$$$$$$$$$$$$$$$$$$$$$$$$$$$$$$$$$$$$$$$$$$$$$$$$$$$   ",
"$$$$$$$$$$$$$$$$$$$$$$$$$$$$$$$$$$$$$$$$$$$$$$$$$$$$$$$$$$$$$$  ",
"$$$$$$$$$$$$$$$$$$$$$$$$$$$$$$$$$$$$$$$$$$$$$$$$$$$$$$$$$$$$$$  ",
"$$$$$$$$$$$$$$$$$$$$$$$$$$$$$$$$$$$$$$$$$$$$$$$$$$$$$$$$$$$$$$  ",
"$$$$$$$$$$$$$$$$$$$$$$$$$$$$$$$$$$$$$$$$$$$$$$$$$$$$$$$$$$$$$$  ",
"$$$$$$$$$$$$$$$$$$$$$$$$$$$$$$$$$$$$$$$$$$$$$$$$$$$$$$$$$$$$$$  ",
" $$$$$$$$$$$$$$$$$$$$$$$$$$$$$$$$$$$$$$$$$$$$$$$$$$$$$$$$$$$$$  ",
" $$$$$$$$$$$$$$$$$$$$$$$$$$$$$$$$$$$$$$$$$$$$$$$$$$$$$$$$$$$$$  ",
"    $$$$$$$$$$$$$$$$$$$$$$$$$$$$$$$$$$$$$$$$$$$$$$$$$$$$$$$$    ",
"      $$$$$$$$$$$$$$$$$$$$$$$$$$$$$$$$$$$$$$$$$$$$$$$$$$$$$     ",
"        $$$$$$$$$$$$$$$$$$$$$$$$$$$$$$$$$$$$$$$$$$$$$$$$$       ",
"          $$$$$$$$$$$$$$$$$$$$$$$$$$$$$$$$$$$$$$$$$$$           ",
"          $$$$$$$$$$$$$$$$$$$$$$$$$$$$$$$$$$$$$$$$$$            ",
"           $$$$$$$$$$$$$$$$$$$$$$$$$$$$$$$$$$$$$$$              ",
"              $$$$$$$$$$$$$$$$$$$$$$$$$$$$$$$$$$$               ",
"               $$$$$$$$$$$$$$$$$$$$$$$$$$$$$$$$$$               ",
"               $$$$$$$$$$$$$$$$$$$$$$$$$$$$$$$$$                ",
"               $$$$$$$$$$$$$$$$$$$$$$$$$$$$$$$                  ",
"                $$$$$$$$$$$$$$$$$$$$$$$$$$$$$$                  ",
"                $$$$$$$$$$$$$$$$$$$$$$$$$$$$$$                  ",
"                $$$$$$$$$$$$$$$$$$$$$$$$$$$$$                   ",
"                $$$$$$$$$$$$$$$$$$$$$$$$$$$$$                   ",
"                $$$$$$$$$$$$$$$$$$$$$$$$$$$$$                   ",
"                $$$$$$$$$$$$$$$$$$$$$$$$$$$$$                   ",
"                 $$$$$$$$$$$$$$$$$$$$$$$$$$$                    ",
"                 $$$$$$$$$$$$$$$$$$$$$$$$$$$                    ",
"                 $$$$$$$$$$$$$$$$$$$$$$$$$$$                    ",
"                 $$$$$$$$$$$$$$$$$$$$$$$$$$$                    ",
"                 $$$$$$$$$$$$$$$$$$$$$$$$$$$                    ",
"                  $$$$$$$$$$$$$$$$$$$$$$$$$$                    ",
"                  $$$$$$$$$$$$$$$$$$$$$$$$$$                    ",
"                  $$$$$$$$$$$$$$$$$$$$$$$$$$                    ",
"                   $$$$$$$$$$$$$$$$$$$$$$$$$                    ",
"                             $$$$$$$$$$$$$                      ",
"                                                                ",
"                                                                ",
"                                                                ",
"                                                                ",
"                                                                ",
"                                                                ",
"                                                                ",
"                                                                "
};
