/* XPM */
static char *fe4321479e714dd5f64ee4204d45df5fymjTWsmKfBRdWKeU[] = {
/* columns rows colors chars-per-pixel */
"64 64 169 2 ",
"   c #000006",
".  c #02030C",
"X  c #040611",
"o  c #050915",
"O  c #080B16",
"+  c #070D19",
"@  c #060C18",
"#  c #050C1A",
"$  c #060C1A",
"%  c #060D1B",
"&  c #060B1C",
"*  c #070D1C",
"=  c #060D1D",
"-  c #070D1D",
";  c #070E1D",
":  c #060B19",
">  c #080B19",
",  c #080C18",
"<  c #080C19",
"1  c #080D19",
"2  c #080D1A",
"3  c #090D1A",
"4  c #080C1B",
"5  c #080D1B",
"6  c #090E1B",
"7  c #0B0E1A",
"8  c #0B0F1A",
"9  c #0A0F1B",
"0  c #090E1C",
"q  c #080E1D",
"w  c #0A0F1C",
"e  c #0B0F1C",
"r  c #0A0F1D",
"t  c #080E1E",
"y  c #090F1E",
"u  c #080E1F",
"i  c #090E1F",
"p  c #080F1F",
"a  c #0A0F1F",
"s  c #0C0F1C",
"d  c #090E1B",
"f  c #0A101C",
"g  c #0B101D",
"h  c #0B111D",
"j  c #08101F",
"k  c #0A101E",
"l  c #0B101E",
"z  c #0A101F",
"x  c #0A111F",
"c  c #0B111F",
"v  c #0C111E",
"b  c #0D121F",
"n  c #0B111E",
"m  c #12161F",
"M  c #060D20",
"N  c #070E21",
"B  c #080F20",
"V  c #090F20",
"C  c #090F20",
"Z  c #0A1120",
"A  c #0A1021",
"S  c #0A1123",
"D  c #0A1323",
"F  c #0B1323",
"G  c #0C1221",
"H  c #0D1322",
"J  c #0D1223",
"K  c #0E1322",
"L  c #0D1422",
"P  c #0D1423",
"I  c #0E1422",
"U  c #0E1523",
"Y  c #0F1523",
"T  c #0D1324",
"R  c #0B1627",
"E  c #0D1524",
"W  c #0C1426",
"Q  c #0F1526",
"!  c #0F1627",
"~  c #0D1323",
"^  c #0E1826",
"/  c #0F1827",
"(  c #0B1528",
")  c #0C1528",
"_  c #0C1529",
"`  c #0D1629",
"'  c #0F1729",
"]  c #0E1629",
"[  c #0F1828",
"{  c #0F192E",
"}  c #0F182B",
"|  c #101524",
" . c #101525",
".. c #111624",
"X. c #121724",
"o. c #121727",
"O. c #111624",
"+. c #111827",
"@. c #121926",
"#. c #111728",
"$. c #101728",
"%. c #111829",
"&. c #121828",
"*. c #11192B",
"=. c #12192B",
"-. c #111A2C",
";. c #121B2F",
":. c #131B2D",
">. c #131C2F",
",. c #121C2E",
"<. c #131B2C",
"1. c #181F2D",
"2. c #131C30",
"3. c #131E31",
"4. c #131E33",
"5. c #141F35",
"6. c #141E32",
"7. c #181F30",
"8. c #131F38",
"9. c #17202E",
"0. c #19202F",
"q. c #172032",
"w. c #162134",
"e. c #152135",
"r. c #162134",
"t. c #1A2334",
"y. c #152238",
"u. c #162339",
"i. c #17233A",
"p. c #16253B",
"a. c #16233A",
"s. c #182139",
"d. c #18253A",
"f. c #1A253B",
"g. c #1D293C",
"h. c #202736",
"j. c #222937",
"k. c #212A3C",
"l. c #282F3F",
"z. c #192741",
"x. c #1C2B42",
"c. c #1C2E49",
"v. c #1F314B",
"b. c #222D43",
"n. c #222F49",
"m. c #253145",
"M. c #283346",
"N. c #24324B",
"B. c #2A364B",
"V. c #2D3A4E",
"C. c #253651",
"Z. c #293751",
"A. c #273A51",
"S. c #2C3C53",
"D. c #2E3E5A",
"F. c #323E53",
"G. c #303F59",
"H. c #2D4055",
"J. c #2E4059",
"K. c #324156",
"L. c #33435B",
"P. c #38455A",
"I. c #36495F",
"U. c #364761",
"Y. c #364A63",
"T. c #394A63",
"R. c #394F68",
"E. c #3D556E",
"W. c #44546E",
/* pixels */
"o o o o o o o @ @ : @ @ @ @ @ @ @ @ @ @ @ o @ @ @ @ @ @ @ @ @ @ @ @ @ @ @ @ @ o o o o o o @ @ @ @ @ @ @ @ @ @ o o @ @ o o o @ o ",
"@ @ o o o o o @ X   .   . o o . . .   . X   X o o X . . o X X . .     . o o o @ X       . . @ o o o .   . X o o   . . . o o $ @ ",
"o o .         .           .   . . . X . . . . .     X X   X .     X     X X X   . X X   .     X   X       .   . .         . o o ",
"o o .   .     .   o           . . . X o o .   .   . X . . . o X . o     . . o X X . . . X     . . X X . . . o X     . .     o o ",
"o o X   o . . o X X o o o X . . .     o . X X o X X .   X   o V o   o @ o o o @ X X X o   . . . X . r o   . o X X X @ o     o o ",
"o o .       X X X .   . @ r o X . X X @ @ @ V @ X X X X @ @ X X   X . . A * o . o o X X . X $ * V o o . . N & X X X       . o o ",
"o X     . o o X X . X @ l @ r o X o o @ 1 l o r o @ @ o @ o o @ O o 1 1 1 @ l o @ o X o l s 1 $ $ X @ . o r o o . X X     . X o ",
"o o X   X @   X X X 1 5.>.1 ! * r X   o u.s.r >.*.] V   .     ] u.G } u.A l e.4.o   r o v 4.r * * @   l 4.^ 1 ] r o 1 .   X @ o ",
"o o     . X > X X 1 r l X O  .#.G *.G U r o o o , 1 1 U *. . .:.$ o r l  .v ! U  . .G @.U U ! l o l ! U o X X o X X o     . @ o ",
"o o     . A A     l R o $ *.#.G o *.>.4.X X A X   $ 4.u.U q.d.U . ] _ o :.5.A l e.:.  4.a.A T o   1 } ] X o $     X o X     @ @ ",
"o X X .   o l U  .*.G <.g.>.. @.f.t.q.q.m.m.7.g.k.g.q. .g.t.*.M.m.*.m.m.m. .m.k. .q.b.<. .t.g.t.1.v t.k.t.1.:.*.G , . . . . X o ",
"o o X X o @ ! ] } } *.x.z.x.d.f.x.z.4.t.N.g.t.N.x.z.e.*.N.z.s.C.v.@.N.N.x.U n.v.7.x.v.N.>.x.B.N.e.f.Z.x.z.7.] ( ( * $ o X X o @ ",
"@ X     X . . o . o X 1 , ! 1 ! *.7.>.q.*.G . @.*.t.7.G ! r 1 t.>.<.g.*.t.@.*.! o G ! X o l   1 q.>.*.!  .1 1 o o . o X     . @ ",
"o     o . o o o . r A X X e.7.T *.x.N.N.G G V X  .N.N.f.o   R 7.k.A.Z. .b.N.d.$ o r G X r r T o d.x.>.q.l G } o . X @ X X     o ",
"@ o     o X @ l G U 1 *.*.! g.7.U o X   . . o 1 1 G 1 o >.<. .t.7.*.t.t. .*.k.U G >.<.t.t. .f >.r  .0.<.@.>.r 1 1 . X o     o @ ",
"@ $ .   X . 1 ! ! $ 1 e.*.l d.f.7.  o @ . o . ( ( A X   z.u.@.x.g.1 q.g.A G g.d.^ e.g.d.g.*.v f.} G d.s.e.#., R V   X X     o @ ",
"@ o X 1 > ! ! G 7.>.d.q.q.d.q.q.b.:.! . . 7.f.1.g.D.m.b.v X $ A 7.M.g.>.M.b.d.t.b.b.!   >.b.g.*.k.d.G   l ! X   o #.T X $ . @ @ ",
"@ $ . X o V V o ! :.4.*.:.u.:.@.f.a.! . o :.:.! <.e.e.*.O l *.l *.n.f.G t.f.7. .f.4.r X U f.e.*.5.4.O . G } A o . A r X X   o @ ",
"@ o   o A 1 @.g.q.q.K.M.N.>.V.V.V.0.K.D.f.#. .l l l G v L.S.V.T.Y.M.S.W.M.q.L.S.b.. v V.V.q.b.K.k.0.L.V.m.m.b g.>.. v o o     o ",
"@ .   X o o r } ( :.a.u.4.! a.f.4.U z.u.r } A 4.4.} ] *.c.p.U z.z.} 7.N.f.7.g.f.! 1 l 2.4.! d.f.q.*.f.u.7.*.^ 4.} $ @ V X     o ",
"@           X @ . o o r r X o  .f.7.G >.t.#.X . o X $ X *.t.m.*.q.k.k.! 1 . A o o *. .1 @ X X o . *.<.X.t.e.G v o X         . @ ",
"@ .         . X * * X o A o r o 5.f.r G f.u.1 .   o r V A u.C.5.e.x.i.*.!   X . * :.4.! @ @ .   $ e.! >.f.! } $ X o         . @ ",
"@ .         . . . . o X . O *.#.G q.f.g.:..   o $ @       . . . o o . . . v U >.t.] G >.l 1   . r X     X ] ( ] ! o         o o ",
"@ o     . X r A o 1 ] A 1 1 A G o  .5.! G U v :.7.e.v s s X . * ! ! q.v ! R A g.d.q.<.t.q.! . v *.r X o . T T $ r X X .   . o @ ",
"@ o     . V #.U >.7.s.o :.x.!     t.:.  ! N.B.m.b.L.G.T.d.b.t. .  . K.U.M.o b.L.7.f.Z.m.k.g.g.M.f.      o s.:..   @ ] o X   o @ ",
"@ o . .   X o f G *.l m 7.G . 1.0.*.q.1.t.t.t.k.t.m.t.G t.k.m.1.0.j.k.#.v t.b.G 1.0.>.t.t.k.f.@.1 0.@. .@.<.1 v l o .   .   @ @ ",
"@ @ . o o o ! x.7.t.f.N.Z.*.f.S.D.N.J.Y.T.L.k.J.Y.E.A.q.E.L.R.L.L.Y.I.t.L.L.S.g.U.F.g.T.S.D.S.t.S.Y.t.t.C.d.:.x.s.v 1 o   . @ @ ",
"@ $ X   X X 1 $   1 *.r l o *.*.! q.e.q.q.q.X.q.7.4.e.U e.q.e.t.q.>.e.@.g.e.t.@.*.:.@.*.7.>.*. .>.A X 1 } $ o r r o 1 X     X @ ",
"o $ A o l o @ o X G 4.o 1 s.<.t.1 m.g.:.o k.K.b.<.N.N.N.k.S.T.L.K.l.S.L.V.t.F.V.>.k.m.g.x.U G g.:.> s.s.! o :.@ A @ A 1 o G r o ",
"@ . . . . o , ,  .U  .X.t. .@.v @.>.>.*.>.>.! *.b q.>.! @.k.q.g.f.<.t.>.t.0.>.*.@.@.*.U F @.>.@. .<.>.>.X.v G ! 1 1 o   . . . o ",
"$ .   @ ( l  .f.g.g.M.D.D.g.N.t.Y.S.b.N.D.D.7.D.A.N.b.t.D.L.m.U.L.L.Y.B.L.U.M.b.D.L.7.G f.J.S.g.H.S.g.m.N.g.>.g.d.! ] ( o   . @ ",
"$ X   o * o $ A ] A @ :.( 1 ] o ] } A U ] ( v 4.4.4.] l e.} @.a.4.] 4.A 2.4.] #.} ( $ G *.>.:.l ! >.v G A r l ! * $ o * o   . @ ",
"o         X G r >.b.d.:. .<.t.f.b.@.*.r U b.k.g.t.M.b.b.q.>.B.B.S.@.U :.e.l k.g.*.>.G  .t.#.X . s 7.s.t.! g.7.*.V A X       . o ",
"@ X     . o @ $ A ! ] r 1 ! ! ! ! ! ] ] l *.:.! r :.] :.1 *.>.e.:.r *.>.! l 7.} r G 1 ! ! A X $ X 1 } ] l T ( o X * o . .   X o ",
"@ o . o G r r $ r . X o .     o *.! #.  . X   . l T A   X ! r .           . r . .   X .   G ! , X.o     . o   o 1 o G G o   X @ ",
"$ $ X   . . o o X 1 #.l o 1  .v #.#. .v ! G v r o @ X o A o . o >.*. .o 1 X. .v  .v T G v G ! U l r 1 ] A o . o o o . .   X @ @ ",
"@ o     X @ A     X.f.@.>.U g.x.>.r g.x.G  .f.>.      A r       d.n.b.. G N.t.*.g.u.l q.x.^ t.x.e.> z.f.G l     G ] o     . @ @ ",
"$ . . . o r r *. .<.t.@.0.g.*.! >.h.1 G k.k.U *.t.k.q.*.g.k.t.j.b.q.X.l.k.1 t.<. .>.t.@.1 q.t.l *.k.*.q.t., s <.7.v G 1 X .   o ",
"X     o A 1 #.e.f.z.f.s.b.N.s.1 f.S.g.t.S.n.7.x.n.N.x.q.C.A.n.S.N.d.n.Z.N.<.N.x.:.g.N.x.<.N.N.*.x.N.e.x.N.s.5.f.e.G A ] o     o ",
"o     . o . o r $ 1 1 l *.! *.X.>.U 1 . l >.*.>.l ! O o F X 1 >.:.>.q.*.v X A A o r l U X.! *.@.*.l o 1 $ . 1 A 1 . . o .     o ",
"@   . r . . * o . X ( x.m.U m.x.b.1 l ! o *.N.d.    $ $ o X } <.0.N.s.v t.T 1 . r l o >.N.<.N.m.f.X o o   X o o o * X X $ .   o ",
"@ o       o A U :.*.*.@ o o o *.t.@.@.d.f.1 G g.b.b.$ q.g.k. .k.k. .b.k.7.G X.<.*.*.X.t.:.1 o G t.<.t.k.t. .1 ! r o o       X @ ",
"@ @   . @ X A :.2.4.] G #.e.r ! d.d.U :.x.7.r f.x.x.G :.x.g.>.N.N.q.d.z.4.v 7.4.} ] @ 7.p.! l d.t.q.b.b.e.o o } _ o o @     @ @ ",
"$ o .   @ U U r   . X o A o X   o k.t.g.q.f.t.7. .b.f.o o @ X r o o X . .   X . o :.t.t.e.g.f.>.t.d.U   G 7.:.*.U *. .o     @ o ",
"@ o     . r r o X @ * A A . o . o s.g.f.G :.d. .v d.e.:.. r ] @ 1 ( ( . o $ o X . :.g.:.:.z.f.! 7.s.l . U e.4.A o T r . .   o @ ",
"$ X 1 l 1 1  .f.f.m.m.M.V.>., F.K.F.k.B.K.F.1.M.V.F.K.1.V.P.K.F.K.k.F.K.V.q.V.V.q.  <.L.D.t.M.K.b.0.B.M.b.b.b.k.d.v U ! G X X @ ",
"@ X X @ @ o ! >.*.:.>.7.t.d.G e.g.d.:.f.v.x.*.g.x.z.z.U x.z.x.z.z.4.u.f.a. .e.u.A . l f.a.*.g.x.e.q.z.a.p.4.:.:.} 1 O r o   . @ ",
"@ .   o . . 1 1 <. .*.@.>.*.*.t.U d.f.1 r f.X.f.7.k.t.<.q.m.*.q.M.h.f.1 o 1 *.>.q.<.U f.k.0.t.9.q.X.k.t.U q.>.U r 1 . . o 1 G $ ",
"o .   o . @ A 1 ] 4.4.#.7.5.e.e.! u.z.u.G g.p.f.*.x.d.z.d.e.*.N.C.N.x.1 $ 2.4.:.x.z.v x.x.x.x.<.g.f.d.7.@.d.e.G T ( *   . N * X ",
"o . . X X o .   X X G v l  .*. .U r G 1 v A A X   o X G f.q.7.q.r ! >.*.o $ X X $ X 1  .1 G ! . o  .t.7.<.<.l r 1 o o X .     X ",
"o . . @ @ o   .     G ] ] 5.:.2.:.4.:., 4.*.X o o r 1 r n.N.x.g.G l :.f.#.. r *   1 a.4.v e.4.} @ o f.x.8.! 1 ( V o o * @     o ",
"o X . X X o .     o r o . 1 A G ] r o . X G r :.:.> o G @   X . . .   1 ! ! *.! ! l 1 >.G @ o l  .X.o   .         . o . . . . o ",
"@ o X o X o o .   1 ! r 1 X  .1 ] ] o o * ( r G ] o r } O . . . . @ X o :.} A 1 ! ! 1 } ] r o ] *.] o . . @ @ X   o o   . X X @ ",
"o .       .   @ A ] ! v :.*.! o 1 7.e.o         A :.] 1 :.! ! :.! *.        .     >.7.U v t.7.7.l X $ ! *.*.1 ] ] A @         X ",
"o     . X .   . @ r l 1 l A A r , l l o . o o r r l 1 o r X . * V @ X o o . X $ o r A G 1 ] A G o o @ o $ 1 o l o o X   .   . o ",
"@ . . r o 1 r o ! A ! *.! o :.*.7.! 1 *.q.4.G *.#.l *.:.O .   ! ] 1 ! 7.G   G t.7.*.o <.7.7.1 *.>.!       *.} V   V X . l . X @ ",
"o X       . . . @ r $ r r O 1 r o . 1 l 1 o , 1 @ . X @ 1 r 1 1 1 O 1 1 r v ! G o l 1 o o G , l r X O 1 o @ @ @ X . .       . o ",
"o         > X * $ ] ! l G :.:.] O ! :.*.r ! e.! @ A X U 5.:.2.*.] 5.5.r T :.:.2.r l :.A ! 4.:.} A ! 2.] ] A 1 ] V o 1       . o ",
"o   .       . X     X . X X X X o * X o X > @ o . o X   @ o o @ o o o o .   . @ X       X o o @ X o @ @ o o   X X           . o ",
"o .       X o o .       o .             . . o @ r o o @ o s 1 A .       . o 1 A r   . . . . X > r $           . X @ o       . @ ",
"o .         . .           . .           . X . . .   . X .   X X             . . X     X X . .   X .             . .         . o ",
"o .                                 .               X X .                                                                   . @ ",
"@ o . o X o . X X . X o @ o X o @ o o o X o o @ X         . o X o o .   X X o o o o o X o @ o o X . X . . o X X o o X X . . X o ",
"@ @ o o o o X o o o @ @ o : @ : o @ o o o o o o o o o o o @ @ o o @ o @ @ X o @ o o o o @ o o o o o o o o o @ o o o o o o o o o "
};
